
<svg width="65px" height="72px" viewBox="0 0 65 72" version="1.1" xmlns="http://www.w3.org/2000/svg" xmlns:xlink="http://www.w3.org/1999/xlink">
  <!-- Generator: Sketch 51.2 (57519) - http://www.bohemiancoding.com/sketch -->
  <desc>Created with Sketch.</desc>
  <defs></defs>
  <g id="WeWaiter" stroke="none" stroke-width="1" fill="none" fill-rule="evenodd">
    <g id="menu_empty" transform="translate(-53.000000, -174.000000)" fill="#ED5933" fill-rule="nonzero">
      <g id="餐厅" transform="translate(31.000000, 152.000000)">
        <path d="M79,24.6836942 C79,23.2015308 77.7911688,22 76.3,22 L45.7,22 C44.2088312,22 43,23.2015308 43,24.6836942 L43,51 L79,51 L79,24.6836942 Z" id="Shape"></path>
        <path d="M24.3493976,51 C23.0518611,51 22,52.1149665 22,53.4903475 L22,54.6525096 C22,56.0278906 23.0518611,57.1428571 24.3493976,57.1428571 L25.6658433,57.1428571 L25.6658433,92.3397683 C25.6658433,93.256689 26.3670841,94 27.2321084,94 C28.0971327,94 28.7983735,93.256689 28.7983735,92.3397683 L28.7983735,57.1428571 L37.0251808,57.1428571 L31.23,51 L24.3493976,51 Z M67.9048796,83.6775097 C67.9048796,84.5944303 68.6061203,85.3377413 69.4711446,85.3377413 C70.3361689,85.3377413 71.0374096,84.5944303 71.0374096,83.6775097 L71.0374096,58.3299227 C71.037187,58.2686194 71.0337883,58.2073753 71.027229,58.1464671 L67.9048796,61.4569691 L67.9048796,83.6775097 Z M37.1802409,58.3299227 L37.1802409,83.6775097 C37.1802409,84.5944303 37.8814817,85.3377413 38.746506,85.3377413 C39.6115303,85.3377413 40.3127711,84.5944303 40.3127711,83.6775097 L40.3127711,60.6268532 L37.3799398,57.5188995 C37.2487665,57.766574 37.1799907,58.0458884 37.1802409,58.3299227 Z M84.6506024,51 L77.77,51 L71.9748192,57.1428571 L80.2016265,57.1428571 L80.2016265,92.3397683 C80.2016265,93.256689 80.9028673,94 81.7678916,94 C82.6329159,94 83.3341567,93.256689 83.3341567,92.3397683 L83.3341567,57.1428571 L84.6506024,57.1428571 C85.9481389,57.1428571 87,56.0278906 87,54.6525096 L87,53.4903475 C87,52.1149665 85.9481389,51 84.6506024,51 Z" id="Shape"></path>
        <path d="M87,51 L36,51 L36.2430999,51.2187658 L42.5331,56.879138 L42.91815,57.2256445 L46.1014,60.0894869 L59.69715,72.3281296 C60.6929246,73.2239568 62.3070754,73.2239568 63.30285,72.3281296 L76.0528501,60.8544021 L79.4350001,57.8039204 L80.4635,56.879138 L86.7535001,51.2187658 L87,51 Z" id="Shape"></path>
      </g>
    </g>
  </g>
</svg>
