
<svg width="48px" height="48px" viewBox="0 0 48 48" version="1.1" xmlns="http://www.w3.org/2000/svg" xmlns:xlink="http://www.w3.org/1999/xlink">
  <!-- Generator: Sketch 51.2 (57519) - http://www.bohemiancoding.com/sketch -->
  <desc>Created with Sketch.</desc>
  <defs></defs>
  <g id="WeWaiter" stroke="none" stroke-width="1" fill="none" fill-rule="evenodd">
    <g id="index" transform="translate(-239.000000, -1058.000000)" fill="#FFFFFF" fill-rule="nonzero">
      <g id="button" transform="translate(133.000000, 1024.000000)">
        <g id="Group" transform="translate(106.000000, 24.000000)">
          <path d="M39.6666667,58 L33,58 L33,54.6666667 L39.6666667,54.6666667 C42.4283333,54.6666667 44.6666667,52.4283333 44.6666667,49.6666667 L44.6666667,43 L48,43 L48,49.6666667 C48,54.2683333 44.2683333,58 39.6666667,58 Z M46.2857143,35 L1.71428573,35 C0.768,35 0,34.328 0,33.5 C0,32.672 0.768,32 1.71428573,32 L46.2857143,32 C47.232,32 48,32.672 48,33.5 C48,34.328 47.232,35 46.2857143,35 Z M44.6666667,18.3333333 C44.6666667,15.5716667 42.4283333,13.3333333 39.6666667,13.3333333 L33,13.3333333 L33,10 L39.6666667,10 C44.2683333,10 48,13.7316667 48,18.3333333 L48,25 L44.6666667,25 L44.6666667,18.3333333 Z M3.33333333,18.3333333 L3.33333333,25 L0,25 L0,18.3333333 C0,13.7316667 3.73166669,10 8.33333334,10 L15,10 L15,13.3333333 L8.33333334,13.3333333 C5.57166668,13.3333333 3.33333333,15.5716667 3.33333333,18.3333333 Z M3.33333333,49.6666667 C3.33333333,52.4283333 5.57166668,54.6666667 8.33333334,54.6666667 L15,54.6666667 L15,58 L8.33333334,58 C3.73166669,58 0,54.2683333 0,49.6666667 L0,43 L3.33333333,43 L3.33333333,49.6666667 Z" id="scan"></path>
        </g>
      </g>
    </g>
  </g>
</svg>
